<mxfile host="Electron" agent="Mozilla/5.0 (Windows NT 10.0; Win64; x64) AppleWebKit/537.36 (KHTML, like Gecko) draw.io/26.0.9 Chrome/128.0.6613.186 Electron/32.2.5 Safari/537.36" version="26.0.9" pages="3">
  <diagram name="Страница — 1" id="UEfIHANbcsyNOv-CU1tN">
    <mxGraphModel dx="2257" dy="825" grid="1" gridSize="10" guides="1" tooltips="1" connect="1" arrows="1" fold="1" page="1" pageScale="1" pageWidth="827" pageHeight="1169" math="0" shadow="0">
      <root>
        <mxCell id="0" />
        <mxCell id="1" parent="0" />
        <mxCell id="uPXOOa5ft-vx0bUtMvcS-1" value="" style="fontColor=#0066CC;verticalAlign=top;verticalLabelPosition=bottom;labelPosition=center;align=center;html=1;outlineConnect=0;fillColor=#CCCCCC;strokeColor=#6881B3;gradientColor=none;gradientDirection=north;strokeWidth=2;shape=mxgraph.networks.monitor;" vertex="1" parent="1">
          <mxGeometry x="-135" y="270" width="910" height="730" as="geometry" />
        </mxCell>
        <mxCell id="uPXOOa5ft-vx0bUtMvcS-2" value="" style="rounded=0;whiteSpace=wrap;html=1;fillColor=#33FFFF;gradientColor=none;" vertex="1" parent="1">
          <mxGeometry x="-130" y="280" width="900" height="500" as="geometry" />
        </mxCell>
        <mxCell id="uPXOOa5ft-vx0bUtMvcS-4" value="" style="rounded=0;whiteSpace=wrap;html=1;" vertex="1" parent="1">
          <mxGeometry x="-130" y="300" width="900" height="460" as="geometry" />
        </mxCell>
        <mxCell id="uPXOOa5ft-vx0bUtMvcS-5" value="" style="rounded=0;whiteSpace=wrap;html=1;fillColor=#FF0000;" vertex="1" parent="1">
          <mxGeometry x="750" y="280" width="20" height="20" as="geometry" />
        </mxCell>
        <mxCell id="uPXOOa5ft-vx0bUtMvcS-6" value="" style="rounded=0;whiteSpace=wrap;html=1;fillColor=#33FFFF;" vertex="1" parent="1">
          <mxGeometry x="730" y="280" width="20" height="20" as="geometry" />
        </mxCell>
        <mxCell id="uPXOOa5ft-vx0bUtMvcS-7" value="" style="rounded=0;whiteSpace=wrap;html=1;fillColor=#33FFFF;" vertex="1" parent="1">
          <mxGeometry x="710" y="280" width="20" height="20" as="geometry" />
        </mxCell>
        <mxCell id="uPXOOa5ft-vx0bUtMvcS-8" value="" style="endArrow=none;html=1;rounded=0;" edge="1" parent="1">
          <mxGeometry width="50" height="50" relative="1" as="geometry">
            <mxPoint x="755" y="295" as="sourcePoint" />
            <mxPoint x="765" y="285" as="targetPoint" />
          </mxGeometry>
        </mxCell>
        <mxCell id="uPXOOa5ft-vx0bUtMvcS-9" value="" style="endArrow=none;html=1;rounded=0;" edge="1" parent="1">
          <mxGeometry width="50" height="50" relative="1" as="geometry">
            <mxPoint x="765" y="295" as="sourcePoint" />
            <mxPoint x="755" y="285" as="targetPoint" />
          </mxGeometry>
        </mxCell>
        <mxCell id="uPXOOa5ft-vx0bUtMvcS-10" value="" style="endArrow=none;html=1;rounded=0;" edge="1" parent="1">
          <mxGeometry width="50" height="50" relative="1" as="geometry">
            <mxPoint x="715" y="289.92" as="sourcePoint" />
            <mxPoint x="725" y="289.92" as="targetPoint" />
          </mxGeometry>
        </mxCell>
        <mxCell id="uPXOOa5ft-vx0bUtMvcS-14" value="" style="rounded=0;whiteSpace=wrap;html=1;" vertex="1" parent="1">
          <mxGeometry x="-130" y="300" width="900" height="60" as="geometry" />
        </mxCell>
        <mxCell id="uPXOOa5ft-vx0bUtMvcS-16" value="Логотип" style="ellipse;whiteSpace=wrap;html=1;aspect=fixed;fontSize=8;" vertex="1" parent="1">
          <mxGeometry x="-120" y="310" width="40" height="40" as="geometry" />
        </mxCell>
        <mxCell id="uPXOOa5ft-vx0bUtMvcS-17" value="Перечень проектов компании" style="text;html=1;align=center;verticalAlign=middle;whiteSpace=wrap;rounded=0;" vertex="1" parent="1">
          <mxGeometry x="-135" y="360" width="185" height="30" as="geometry" />
        </mxCell>
        <mxCell id="uPXOOa5ft-vx0bUtMvcS-27" value="" style="whiteSpace=wrap;html=1;aspect=fixed;" vertex="1" parent="1">
          <mxGeometry x="-120" y="390" width="100" height="100" as="geometry" />
        </mxCell>
        <mxCell id="uPXOOa5ft-vx0bUtMvcS-28" value="" style="whiteSpace=wrap;html=1;aspect=fixed;" vertex="1" parent="1">
          <mxGeometry x="-18" y="390" width="100" height="100" as="geometry" />
        </mxCell>
        <mxCell id="uPXOOa5ft-vx0bUtMvcS-29" value="" style="whiteSpace=wrap;html=1;aspect=fixed;" vertex="1" parent="1">
          <mxGeometry x="84" y="390" width="100" height="100" as="geometry" />
        </mxCell>
        <mxCell id="uPXOOa5ft-vx0bUtMvcS-30" value="" style="whiteSpace=wrap;html=1;aspect=fixed;" vertex="1" parent="1">
          <mxGeometry x="-120" y="492" width="100" height="100" as="geometry" />
        </mxCell>
        <mxCell id="uPXOOa5ft-vx0bUtMvcS-31" value="" style="whiteSpace=wrap;html=1;aspect=fixed;" vertex="1" parent="1">
          <mxGeometry x="-18" y="492" width="100" height="100" as="geometry" />
        </mxCell>
        <mxCell id="uPXOOa5ft-vx0bUtMvcS-32" value="" style="whiteSpace=wrap;html=1;aspect=fixed;" vertex="1" parent="1">
          <mxGeometry x="84" y="492" width="100" height="100" as="geometry" />
        </mxCell>
        <mxCell id="uPXOOa5ft-vx0bUtMvcS-33" value="проект 1&lt;span style=&quot;color: rgba(0, 0, 0, 0); font-family: monospace; font-size: 0px; text-align: start; text-wrap: nowrap;&quot;&gt;%3CmxGraphModel%3E%3Croot%3E%3CmxCell%20id%3D%220%22%2F%3E%3CmxCell%20id%3D%221%22%20parent%3D%220%22%2F%3E%3CmxCell%20id%3D%222%22%20value%3D%22%22%20style%3D%22whiteSpace%3Dwrap%3Bhtml%3D1%3Baspect%3Dfixed%3B%22%20vertex%3D%221%22%20parent%3D%221%22%3E%3CmxGeometry%20x%3D%22-120%22%20y%3D%22390%22%20width%3D%22100%22%20height%3D%22100%22%20as%3D%22geometry%22%2F%3E%3C%2FmxCell%3E%3C%2Froot%3E%3C%2FmxGraphModel%3E&lt;/span&gt;" style="rounded=0;whiteSpace=wrap;html=1;fillColor=#00FFFF;" vertex="1" parent="1">
          <mxGeometry x="-120" y="390" width="100" height="20" as="geometry" />
        </mxCell>
        <mxCell id="uPXOOa5ft-vx0bUtMvcS-34" value="проект 3&lt;span style=&quot;color: rgba(0, 0, 0, 0); font-family: monospace; font-size: 0px; text-align: start; text-wrap: nowrap;&quot;&gt;%3CmxGraphModel%3E%3Croot%3E%3CmxCell%20id%3D%220%22%2F%3E%3CmxCell%20id%3D%221%22%20parent%3D%220%22%2F%3E%3CmxCell%20id%3D%222%22%20value%3D%22%22%20style%3D%22whiteSpace%3Dwrap%3Bhtml%3D1%3Baspect%3Dfixed%3B%22%20vertex%3D%221%22%20parent%3D%221%22%3E%3CmxGeometry%20x%3D%22-120%22%20y%3D%22390%22%20width%3D%22100%22%20height%3D%22100%22%20as%3D%22geometry%22%2F%3E%3C%2FmxCell%3E%3C%2Froot%3E%3C%2FmxGraphModel%3E&lt;/span&gt;" style="rounded=0;whiteSpace=wrap;html=1;fillColor=#00FFFF;" vertex="1" parent="1">
          <mxGeometry x="84" y="390" width="100" height="20" as="geometry" />
        </mxCell>
        <mxCell id="uPXOOa5ft-vx0bUtMvcS-35" value="проект 6&lt;span style=&quot;color: rgba(0, 0, 0, 0); font-family: monospace; font-size: 0px; text-align: start; text-wrap: nowrap;&quot;&gt;%3CmxGraphModel%3E%3Croot%3E%3CmxCell%20id%3D%220%22%2F%3E%3CmxCell%20id%3D%221%22%20parent%3D%220%22%2F%3E%3CmxCell%20id%3D%222%22%20value%3D%22%22%20style%3D%22whiteSpace%3Dwrap%3Bhtml%3D1%3Baspect%3Dfixed%3B%22%20vertex%3D%221%22%20parent%3D%221%22%3E%3CmxGeometry%20x%3D%22-120%22%20y%3D%22390%22%20width%3D%22100%22%20height%3D%22100%22%20as%3D%22geometry%22%2F%3E%3C%2FmxCell%3E%3C%2Froot%3E%3C%2FmxGraphModel%3E&lt;/span&gt;" style="rounded=0;whiteSpace=wrap;html=1;fillColor=#00FFFF;" vertex="1" parent="1">
          <mxGeometry x="84" y="492" width="100" height="20" as="geometry" />
        </mxCell>
        <mxCell id="uPXOOa5ft-vx0bUtMvcS-36" value="проект 5&lt;span style=&quot;color: rgba(0, 0, 0, 0); font-family: monospace; font-size: 0px; text-align: start; text-wrap: nowrap;&quot;&gt;%3CmxGraphModel%3E%3Croot%3E%3CmxCell%20id%3D%220%22%2F%3E%3CmxCell%20id%3D%221%22%20parent%3D%220%22%2F%3E%3CmxCell%20id%3D%222%22%20value%3D%22%22%20style%3D%22whiteSpace%3Dwrap%3Bhtml%3D1%3Baspect%3Dfixed%3B%22%20vertex%3D%221%22%20parent%3D%221%22%3E%3CmxGeometry%20x%3D%22-120%22%20y%3D%22390%22%20width%3D%22100%22%20height%3D%22100%22%20as%3D%22geometry%22%2F%3E%3C%2FmxCell%3E%3C%2Froot%3E%3C%2FmxGraphModel%3E&lt;/span&gt;" style="rounded=0;whiteSpace=wrap;html=1;fillColor=#00FFFF;" vertex="1" parent="1">
          <mxGeometry x="-18" y="492" width="100" height="20" as="geometry" />
        </mxCell>
        <mxCell id="uPXOOa5ft-vx0bUtMvcS-37" value="проект 4&lt;span style=&quot;color: rgba(0, 0, 0, 0); font-family: monospace; font-size: 0px; text-align: start; text-wrap: nowrap;&quot;&gt;%3CmxGraphModel%3E%3Croot%3E%3CmxCell%20id%3D%220%22%2F%3E%3CmxCell%20id%3D%221%22%20parent%3D%220%22%2F%3E%3CmxCell%20id%3D%222%22%20value%3D%22%22%20style%3D%22whiteSpace%3Dwrap%3Bhtml%3D1%3Baspect%3Dfixed%3B%22%20vertex%3D%221%22%20parent%3D%221%22%3E%3CmxGeometry%20x%3D%22-120%22%20y%3D%22390%22%20width%3D%22100%22%20height%3D%22100%22%20as%3D%22geometry%22%2F%3E%3C%2FmxCell%3E%3C%2Froot%3E%3C%2FmxGraphModel%3E&lt;/span&gt;" style="rounded=0;whiteSpace=wrap;html=1;fillColor=#00FFFF;" vertex="1" parent="1">
          <mxGeometry x="-120" y="492" width="100" height="20" as="geometry" />
        </mxCell>
        <mxCell id="uPXOOa5ft-vx0bUtMvcS-38" value="проект 2&lt;span style=&quot;color: rgba(0, 0, 0, 0); font-family: monospace; font-size: 0px; text-align: start; text-wrap: nowrap;&quot;&gt;%3CmxGraphModel%3E%3Croot%3E%3CmxCell%20id%3D%220%22%2F%3E%3CmxCell%20id%3D%221%22%20parent%3D%220%22%2F%3E%3CmxCell%20id%3D%222%22%20value%3D%22%22%20style%3D%22whiteSpace%3Dwrap%3Bhtml%3D1%3Baspect%3Dfixed%3B%22%20vertex%3D%221%22%20parent%3D%221%22%3E%3CmxGeometry%20x%3D%22-120%22%20y%3D%22390%22%20width%3D%22100%22%20height%3D%22100%22%20as%3D%22geometry%22%2F%3E%3C%2FmxCell%3E%3C%2Froot%3E%3C%2FmxGraphModel%3E&lt;/span&gt;" style="rounded=0;whiteSpace=wrap;html=1;fillColor=#00FFFF;" vertex="1" parent="1">
          <mxGeometry x="-18" y="391" width="100" height="20" as="geometry" />
        </mxCell>
        <mxCell id="uPXOOa5ft-vx0bUtMvcS-39" value="тип: инвест" style="rounded=0;whiteSpace=wrap;html=1;fillColor=#67AB9F;" vertex="1" parent="1">
          <mxGeometry x="-120" y="410" width="100" height="20" as="geometry" />
        </mxCell>
        <mxCell id="uPXOOa5ft-vx0bUtMvcS-40" value="Статус: в работе" style="rounded=0;whiteSpace=wrap;html=1;fillColor=#FFFF00;" vertex="1" parent="1">
          <mxGeometry x="-120" y="430" width="100" height="20" as="geometry" />
        </mxCell>
        <mxCell id="uPXOOa5ft-vx0bUtMvcS-41" value="Отдел: IT" style="rounded=0;whiteSpace=wrap;html=1;fillColor=#E6D0DE;" vertex="1" parent="1">
          <mxGeometry x="-120" y="450" width="100" height="20" as="geometry" />
        </mxCell>
        <mxCell id="uPXOOa5ft-vx0bUtMvcS-42" value="тип: корпоратив" style="rounded=0;whiteSpace=wrap;html=1;fillColor=#9AC7BF;" vertex="1" parent="1">
          <mxGeometry x="-18" y="410" width="100" height="20" as="geometry" />
        </mxCell>
        <mxCell id="uPXOOa5ft-vx0bUtMvcS-43" value="Статус: заверш" style="rounded=0;whiteSpace=wrap;html=1;fillColor=#00FF00;" vertex="1" parent="1">
          <mxGeometry x="-18" y="430" width="100" height="20" as="geometry" />
        </mxCell>
        <mxCell id="uPXOOa5ft-vx0bUtMvcS-44" value="Отдел: финансы" style="rounded=0;whiteSpace=wrap;html=1;fillColor=#FFD966;" vertex="1" parent="1">
          <mxGeometry x="-18" y="450" width="100" height="20" as="geometry" />
        </mxCell>
        <mxCell id="uPXOOa5ft-vx0bUtMvcS-45" value="тип: инвест" style="rounded=0;whiteSpace=wrap;html=1;fillColor=#67AB9F;" vertex="1" parent="1">
          <mxGeometry x="84" y="410" width="100" height="20" as="geometry" />
        </mxCell>
        <mxCell id="uPXOOa5ft-vx0bUtMvcS-46" value="Статус: Приост." style="rounded=0;whiteSpace=wrap;html=1;fillColor=#FF0000;" vertex="1" parent="1">
          <mxGeometry x="84" y="430" width="100" height="20" as="geometry" />
        </mxCell>
        <mxCell id="uPXOOa5ft-vx0bUtMvcS-47" value="Отдел: Маркетин" style="rounded=0;whiteSpace=wrap;html=1;fillColor=#EA6B66;" vertex="1" parent="1">
          <mxGeometry x="84" y="450" width="100" height="20" as="geometry" />
        </mxCell>
        <mxCell id="uPXOOa5ft-vx0bUtMvcS-48" value="тип: инвест" style="rounded=0;whiteSpace=wrap;html=1;fillColor=#67AB9F;" vertex="1" parent="1">
          <mxGeometry x="84" y="512" width="100" height="20" as="geometry" />
        </mxCell>
        <mxCell id="uPXOOa5ft-vx0bUtMvcS-49" value="&lt;font style=&quot;font-size: 11px;&quot;&gt;Статус: завершен&lt;/font&gt;" style="rounded=0;whiteSpace=wrap;html=1;fillColor=#00FF00;" vertex="1" parent="1">
          <mxGeometry x="84" y="532" width="100" height="20" as="geometry" />
        </mxCell>
        <mxCell id="uPXOOa5ft-vx0bUtMvcS-50" value="Отдел: IT" style="rounded=0;whiteSpace=wrap;html=1;fillColor=#E6D0DE;" vertex="1" parent="1">
          <mxGeometry x="84" y="552" width="100" height="20" as="geometry" />
        </mxCell>
        <mxCell id="uPXOOa5ft-vx0bUtMvcS-51" value="тип: инвест" style="rounded=0;whiteSpace=wrap;html=1;fillColor=#67AB9F;" vertex="1" parent="1">
          <mxGeometry x="-18" y="512" width="100" height="20" as="geometry" />
        </mxCell>
        <mxCell id="uPXOOa5ft-vx0bUtMvcS-52" value="Статус: в работе" style="rounded=0;whiteSpace=wrap;html=1;fillColor=#FFFF00;" vertex="1" parent="1">
          <mxGeometry x="-18" y="532" width="100" height="20" as="geometry" />
        </mxCell>
        <mxCell id="uPXOOa5ft-vx0bUtMvcS-53" value="Отдел: HR" style="rounded=0;whiteSpace=wrap;html=1;fillColor=#B9E0A5;" vertex="1" parent="1">
          <mxGeometry x="-18" y="552" width="100" height="20" as="geometry" />
        </mxCell>
        <mxCell id="uPXOOa5ft-vx0bUtMvcS-54" value="тип: инвест" style="rounded=0;whiteSpace=wrap;html=1;fillColor=#67AB9F;" vertex="1" parent="1">
          <mxGeometry x="-120" y="512" width="100" height="20" as="geometry" />
        </mxCell>
        <mxCell id="uPXOOa5ft-vx0bUtMvcS-55" value="Статус: приост" style="rounded=0;whiteSpace=wrap;html=1;fillColor=#FF0000;" vertex="1" parent="1">
          <mxGeometry x="-120" y="532" width="100" height="20" as="geometry" />
        </mxCell>
        <mxCell id="uPXOOa5ft-vx0bUtMvcS-56" value="Отдел: IT" style="rounded=0;whiteSpace=wrap;html=1;fillColor=#E6D0DE;" vertex="1" parent="1">
          <mxGeometry x="-120" y="552" width="100" height="20" as="geometry" />
        </mxCell>
        <mxCell id="MCLhnKrlaNXqN0JRqumL-1" value="Меню" style="rounded=0;whiteSpace=wrap;html=1;" vertex="1" parent="1">
          <mxGeometry x="-60" y="320" width="80" height="20" as="geometry" />
        </mxCell>
        <mxCell id="MCLhnKrlaNXqN0JRqumL-2" value="Поиск" style="rounded=0;whiteSpace=wrap;html=1;" vertex="1" parent="1">
          <mxGeometry x="33.5" y="320" width="80" height="20" as="geometry" />
        </mxCell>
        <mxCell id="MCLhnKrlaNXqN0JRqumL-3" value="Фильтр" style="rounded=0;whiteSpace=wrap;html=1;" vertex="1" parent="1">
          <mxGeometry x="130" y="320" width="80" height="20" as="geometry" />
        </mxCell>
      </root>
    </mxGraphModel>
  </diagram>
  <diagram id="kqtxQI3SDFBTTfoPvkWn" name="Страница — 2">
    <mxGraphModel dx="4076" dy="920" grid="1" gridSize="10" guides="1" tooltips="1" connect="1" arrows="1" fold="1" page="1" pageScale="1" pageWidth="827" pageHeight="1169" math="0" shadow="0">
      <root>
        <mxCell id="0" />
        <mxCell id="1" parent="0" />
        <mxCell id="K-C7AdIlWcm5XO7sy-5D-126" value="" style="fontColor=#0066CC;verticalAlign=top;verticalLabelPosition=bottom;labelPosition=center;align=center;html=1;outlineConnect=0;fillColor=#CCCCCC;strokeColor=#6881B3;gradientColor=none;gradientDirection=north;strokeWidth=2;shape=mxgraph.networks.monitor;movable=0;resizable=0;rotatable=0;deletable=0;editable=0;locked=1;connectable=0;" vertex="1" parent="1">
          <mxGeometry x="-1810" y="190" width="910" height="730" as="geometry" />
        </mxCell>
        <mxCell id="K-C7AdIlWcm5XO7sy-5D-127" value="" style="rounded=0;whiteSpace=wrap;html=1;fillColor=#33FFFF;gradientColor=none;movable=0;resizable=0;rotatable=0;deletable=0;editable=0;locked=1;connectable=0;" vertex="1" parent="1">
          <mxGeometry x="-1805" y="200" width="900" height="500" as="geometry" />
        </mxCell>
        <mxCell id="K-C7AdIlWcm5XO7sy-5D-128" value="" style="rounded=0;whiteSpace=wrap;html=1;movable=0;resizable=0;rotatable=0;deletable=0;editable=0;locked=1;connectable=0;" vertex="1" parent="1">
          <mxGeometry x="-1805" y="220" width="900" height="460" as="geometry" />
        </mxCell>
        <mxCell id="K-C7AdIlWcm5XO7sy-5D-129" value="" style="rounded=0;whiteSpace=wrap;html=1;fillColor=#FF0000;movable=0;resizable=0;rotatable=0;deletable=0;editable=0;locked=1;connectable=0;" vertex="1" parent="1">
          <mxGeometry x="-925" y="200" width="20" height="20" as="geometry" />
        </mxCell>
        <mxCell id="K-C7AdIlWcm5XO7sy-5D-130" value="" style="rounded=0;whiteSpace=wrap;html=1;fillColor=#33FFFF;movable=0;resizable=0;rotatable=0;deletable=0;editable=0;locked=1;connectable=0;" vertex="1" parent="1">
          <mxGeometry x="-945" y="200" width="20" height="20" as="geometry" />
        </mxCell>
        <mxCell id="K-C7AdIlWcm5XO7sy-5D-131" value="" style="rounded=0;whiteSpace=wrap;html=1;fillColor=#33FFFF;movable=0;resizable=0;rotatable=0;deletable=0;editable=0;locked=1;connectable=0;" vertex="1" parent="1">
          <mxGeometry x="-965" y="200" width="20" height="20" as="geometry" />
        </mxCell>
        <mxCell id="K-C7AdIlWcm5XO7sy-5D-132" value="" style="endArrow=none;html=1;rounded=0;movable=0;resizable=0;rotatable=0;deletable=0;editable=0;locked=1;connectable=0;" edge="1" parent="1">
          <mxGeometry width="50" height="50" relative="1" as="geometry">
            <mxPoint x="-920" y="215" as="sourcePoint" />
            <mxPoint x="-910" y="205" as="targetPoint" />
          </mxGeometry>
        </mxCell>
        <mxCell id="K-C7AdIlWcm5XO7sy-5D-133" value="" style="endArrow=none;html=1;rounded=0;movable=0;resizable=0;rotatable=0;deletable=0;editable=0;locked=1;connectable=0;" edge="1" parent="1">
          <mxGeometry width="50" height="50" relative="1" as="geometry">
            <mxPoint x="-910" y="215" as="sourcePoint" />
            <mxPoint x="-920" y="205" as="targetPoint" />
          </mxGeometry>
        </mxCell>
        <mxCell id="K-C7AdIlWcm5XO7sy-5D-134" value="" style="endArrow=none;html=1;rounded=0;movable=0;resizable=0;rotatable=0;deletable=0;editable=0;locked=1;connectable=0;" edge="1" parent="1">
          <mxGeometry width="50" height="50" relative="1" as="geometry">
            <mxPoint x="-960" y="209.92000000000002" as="sourcePoint" />
            <mxPoint x="-950" y="209.92000000000002" as="targetPoint" />
          </mxGeometry>
        </mxCell>
        <mxCell id="K-C7AdIlWcm5XO7sy-5D-135" value="" style="rounded=0;whiteSpace=wrap;html=1;movable=0;resizable=0;rotatable=0;deletable=0;editable=0;locked=1;connectable=0;" vertex="1" parent="1">
          <mxGeometry x="-1805" y="220" width="900" height="60" as="geometry" />
        </mxCell>
        <mxCell id="K-C7AdIlWcm5XO7sy-5D-136" value="Логотип" style="ellipse;whiteSpace=wrap;html=1;aspect=fixed;fontSize=8;movable=0;resizable=0;rotatable=0;deletable=0;editable=0;locked=1;connectable=0;" vertex="1" parent="1">
          <mxGeometry x="-1795" y="230" width="40" height="40" as="geometry" />
        </mxCell>
        <mxCell id="K-C7AdIlWcm5XO7sy-5D-137" value="&lt;font style=&quot;font-size: 10px;&quot;&gt;Название проекта&lt;/font&gt;" style="rounded=0;whiteSpace=wrap;html=1;movable=0;resizable=0;rotatable=0;deletable=0;editable=0;locked=1;connectable=0;" vertex="1" parent="1">
          <mxGeometry x="-1795" y="280" width="93" height="20" as="geometry" />
        </mxCell>
        <mxCell id="K-C7AdIlWcm5XO7sy-5D-138" value="Руководитель" style="rounded=0;whiteSpace=wrap;html=1;movable=0;resizable=0;rotatable=0;deletable=0;editable=0;locked=1;connectable=0;" vertex="1" parent="1">
          <mxGeometry x="-1702" y="280" width="90" height="20" as="geometry" />
        </mxCell>
        <mxCell id="K-C7AdIlWcm5XO7sy-5D-139" value="Сроки" style="rounded=0;whiteSpace=wrap;html=1;movable=0;resizable=0;rotatable=0;deletable=0;editable=0;locked=1;connectable=0;" vertex="1" parent="1">
          <mxGeometry x="-1612" y="280" width="90" height="20" as="geometry" />
        </mxCell>
        <mxCell id="K-C7AdIlWcm5XO7sy-5D-140" value="Статус" style="rounded=0;whiteSpace=wrap;html=1;movable=0;resizable=0;rotatable=0;deletable=0;editable=0;locked=1;connectable=0;" vertex="1" parent="1">
          <mxGeometry x="-1522" y="280" width="83" height="20" as="geometry" />
        </mxCell>
        <mxCell id="K-C7AdIlWcm5XO7sy-5D-141" value="" style="rounded=0;whiteSpace=wrap;html=1;movable=0;resizable=0;rotatable=0;deletable=0;editable=0;locked=1;connectable=0;" vertex="1" parent="1">
          <mxGeometry x="-1795" y="330" width="393" height="80" as="geometry" />
        </mxCell>
        <mxCell id="K-C7AdIlWcm5XO7sy-5D-142" value="Планирование" style="rounded=0;whiteSpace=wrap;html=1;movable=0;resizable=0;rotatable=0;deletable=0;editable=0;locked=1;connectable=0;" vertex="1" parent="1">
          <mxGeometry x="-1795" y="310" width="90" height="20" as="geometry" />
        </mxCell>
        <mxCell id="K-C7AdIlWcm5XO7sy-5D-143" value="Задача Х&lt;br&gt;Руководитель:&amp;nbsp; A&lt;div&gt;&lt;span style=&quot;background-color: transparent; color: light-dark(rgb(0, 0, 0), rgb(255, 255, 255));&quot;&gt;Сроки: дата&lt;/span&gt;&lt;span style=&quot;background-color: transparent; text-wrap: nowrap; color: rgba(0, 0, 0, 0); font-family: monospace; font-size: 0px; text-align: start;&quot;&gt;%3CmxGraphModel%3E%3Croot%3E%3CmxCell%20id%3D%220%22%2F%3E%3CmxCell%20id%3D%221%22%20parent%3D%220%22%2F%3E%3CmxCell%20id%3D%222%22%20value%3D%22%22%20style%3D%22whiteSpace%3Dwrap%3Bhtml%3D1%3Baspect%3Dfixed%3B%22%20vertex%3D%221%22%20parent%3D%221%22%3E%3CmxGeometry%20x%3D%22-853%22%20y%3D%22330%22%20width%3D%2280%22%20height%3D%2280%22%20as%3D%22geometry%22%2F%3E%3C%2FmxCell%3E%3C%2Froot%3E%3C%2FmxGraphModel%3E&lt;/span&gt;&lt;/div&gt;" style="rounded=0;whiteSpace=wrap;html=1;movable=0;resizable=0;rotatable=0;deletable=0;editable=0;locked=1;connectable=0;" vertex="1" parent="1">
          <mxGeometry x="-1795" y="330" width="133" height="80" as="geometry" />
        </mxCell>
        <mxCell id="K-C7AdIlWcm5XO7sy-5D-144" value="Задача Y&lt;br&gt;Руководитель: B&lt;div&gt;Сроки: дата&lt;span style=&quot;color: rgba(0, 0, 0, 0); font-family: monospace; font-size: 0px; text-align: start; text-wrap: nowrap; background-color: transparent;&quot;&gt;%3CmxGraphModel%3E%3Croot%3E%3CmxCell%20id%3D%220%22%2F%3E%3CmxCell%20id%3D%221%22%20parent%3D%220%22%2F%3E%3CmxCell%20id%3D%222%22%20value%3D%22%22%20style%3D%22whiteSpace%3Dwrap%3Bhtml%3D1%3Baspect%3Dfixed%3B%22%20vertex%3D%221%22%20parent%3D%221%22%3E%3CmxGeometry%20x%3D%22-853%22%20y%3D%22330%22%20width%3D%2280%22%20height%3D%2280%22%20as%3D%22geometry%22%2F%3E%3C%2FmxCell%3E%3C%2Froot%3E%3C%2FmxGraphModel%3E&lt;/span&gt;&lt;/div&gt;" style="rounded=0;whiteSpace=wrap;html=1;movable=0;resizable=0;rotatable=0;deletable=0;editable=0;locked=1;connectable=0;" vertex="1" parent="1">
          <mxGeometry x="-1662" y="330" width="133" height="80" as="geometry" />
        </mxCell>
        <mxCell id="K-C7AdIlWcm5XO7sy-5D-145" value="Задача Z&lt;br&gt;Руководитель: C&lt;div&gt;&lt;span style=&quot;background-color: transparent; color: light-dark(rgb(0, 0, 0), rgb(255, 255, 255));&quot;&gt;Сроки: дата&lt;/span&gt;&lt;span style=&quot;background-color: transparent; text-wrap: nowrap; color: rgba(0, 0, 0, 0); font-family: monospace; font-size: 0px; text-align: start;&quot;&gt;%3CmxGraphModel%3E%3Croot%3E%3CmxCell%20id%3D%220%22%2F%3E%3CmxCell%20id%3D%221%22%20parent%3D%220%22%2F%3E%3CmxCell%20id%3D%222%22%20value%3D%22%22%20style%3D%22whiteSpace%3Dwrap%3Bhtml%3D1%3Baspect%3Dfixed%3B%22%20vertex%3D%221%22%20parent%3D%221%22%3E%3CmxGeometry%20x%3D%22-853%22%20y%3D%22330%22%20width%3D%2280%22%20height%3D%2280%22%20as%3D%22geometry%22%2F%3E%3C%2FmxCell%3E%3C%2Froot%3E%3C%2FmxGraphModel%3E&lt;/span&gt;&lt;/div&gt;" style="rounded=0;whiteSpace=wrap;html=1;movable=0;resizable=0;rotatable=0;deletable=0;editable=0;locked=1;connectable=0;" vertex="1" parent="1">
          <mxGeometry x="-1532" y="330" width="133" height="80" as="geometry" />
        </mxCell>
        <mxCell id="K-C7AdIlWcm5XO7sy-5D-146" value="" style="rounded=0;whiteSpace=wrap;html=1;movable=0;resizable=0;rotatable=0;deletable=0;editable=0;locked=1;connectable=0;" vertex="1" parent="1">
          <mxGeometry x="-1795" y="440" width="393" height="80" as="geometry" />
        </mxCell>
        <mxCell id="K-C7AdIlWcm5XO7sy-5D-147" value="Разработка" style="rounded=0;whiteSpace=wrap;html=1;movable=0;resizable=0;rotatable=0;deletable=0;editable=0;locked=1;connectable=0;" vertex="1" parent="1">
          <mxGeometry x="-1795" y="420" width="90" height="20" as="geometry" />
        </mxCell>
        <mxCell id="K-C7AdIlWcm5XO7sy-5D-148" value="Задача Y&lt;br&gt;Руководитель: B&lt;div&gt;Сроки: дата&lt;span style=&quot;color: rgba(0, 0, 0, 0); font-family: monospace; font-size: 0px; text-align: start; text-wrap: nowrap; background-color: transparent;&quot;&gt;%3CmxGraphModel%3E%3Croot%3E%3CmxCell%20id%3D%220%22%2F%3E%3CmxCell%20id%3D%221%22%20parent%3D%220%22%2F%3E%3CmxCell%20id%3D%222%22%20value%3D%22%22%20style%3D%22whiteSpace%3Dwrap%3Bhtml%3D1%3Baspect%3Dfixed%3B%22%20vertex%3D%221%22%20parent%3D%221%22%3E%3CmxGeometry%20x%3D%22-853%22%20y%3D%22330%22%20width%3D%2280%22%20height%3D%2280%22%20as%3D%22geometry%22%2F%3E%3C%2FmxCell%3E%3C%2Froot%3E%3C%2FmxGraphModel%3E&lt;/span&gt;&lt;/div&gt;" style="rounded=0;whiteSpace=wrap;html=1;movable=0;resizable=0;rotatable=0;deletable=0;editable=0;locked=1;connectable=0;" vertex="1" parent="1">
          <mxGeometry x="-1662" y="440" width="133" height="80" as="geometry" />
        </mxCell>
        <mxCell id="K-C7AdIlWcm5XO7sy-5D-149" value="Задача Z&lt;br&gt;Руководитель: C&lt;div&gt;&lt;span style=&quot;background-color: transparent; color: light-dark(rgb(0, 0, 0), rgb(255, 255, 255));&quot;&gt;Сроки: дата&lt;/span&gt;&lt;span style=&quot;background-color: transparent; text-wrap: nowrap; color: rgba(0, 0, 0, 0); font-family: monospace; font-size: 0px; text-align: start;&quot;&gt;%3CmxGraphModel%3E%3Croot%3E%3CmxCell%20id%3D%220%22%2F%3E%3CmxCell%20id%3D%221%22%20parent%3D%220%22%2F%3E%3CmxCell%20id%3D%222%22%20value%3D%22%22%20style%3D%22whiteSpace%3Dwrap%3Bhtml%3D1%3Baspect%3Dfixed%3B%22%20vertex%3D%221%22%20parent%3D%221%22%3E%3CmxGeometry%20x%3D%22-853%22%20y%3D%22330%22%20width%3D%2280%22%20height%3D%2280%22%20as%3D%22geometry%22%2F%3E%3C%2FmxCell%3E%3C%2Froot%3E%3C%2FmxGraphModel%3E&lt;/span&gt;&lt;/div&gt;" style="rounded=0;whiteSpace=wrap;html=1;movable=0;resizable=0;rotatable=0;deletable=0;editable=0;locked=1;connectable=0;" vertex="1" parent="1">
          <mxGeometry x="-1532" y="440" width="133" height="80" as="geometry" />
        </mxCell>
        <mxCell id="K-C7AdIlWcm5XO7sy-5D-150" value="" style="rounded=0;whiteSpace=wrap;html=1;movable=0;resizable=0;rotatable=0;deletable=0;editable=0;locked=1;connectable=0;" vertex="1" parent="1">
          <mxGeometry x="-1795" y="555" width="393" height="80" as="geometry" />
        </mxCell>
        <mxCell id="K-C7AdIlWcm5XO7sy-5D-151" value="Тестирование" style="rounded=0;whiteSpace=wrap;html=1;movable=0;resizable=0;rotatable=0;deletable=0;editable=0;locked=1;connectable=0;" vertex="1" parent="1">
          <mxGeometry x="-1795" y="535" width="90" height="20" as="geometry" />
        </mxCell>
        <mxCell id="K-C7AdIlWcm5XO7sy-5D-152" value="Задача Y&lt;br&gt;Руководитель: B&lt;div&gt;Сроки: дата&lt;span style=&quot;color: rgba(0, 0, 0, 0); font-family: monospace; font-size: 0px; text-align: start; text-wrap: nowrap; background-color: transparent;&quot;&gt;%3CmxGraphModel%3E%3Croot%3E%3CmxCell%20id%3D%220%22%2F%3E%3CmxCell%20id%3D%221%22%20parent%3D%220%22%2F%3E%3CmxCell%20id%3D%222%22%20value%3D%22%22%20style%3D%22whiteSpace%3Dwrap%3Bhtml%3D1%3Baspect%3Dfixed%3B%22%20vertex%3D%221%22%20parent%3D%221%22%3E%3CmxGeometry%20x%3D%22-853%22%20y%3D%22330%22%20width%3D%2280%22%20height%3D%2280%22%20as%3D%22geometry%22%2F%3E%3C%2FmxCell%3E%3C%2Froot%3E%3C%2FmxGraphModel%3E&lt;/span&gt;&lt;/div&gt;" style="rounded=0;whiteSpace=wrap;html=1;movable=0;resizable=0;rotatable=0;deletable=0;editable=0;locked=1;connectable=0;" vertex="1" parent="1">
          <mxGeometry x="-1662" y="555" width="133" height="80" as="geometry" />
        </mxCell>
        <mxCell id="K-C7AdIlWcm5XO7sy-5D-153" value="Задача Z&lt;br&gt;Руководитель: C&lt;div&gt;&lt;span style=&quot;background-color: transparent; color: light-dark(rgb(0, 0, 0), rgb(255, 255, 255));&quot;&gt;Сроки: дата&lt;/span&gt;&lt;span style=&quot;background-color: transparent; text-wrap: nowrap; color: rgba(0, 0, 0, 0); font-family: monospace; font-size: 0px; text-align: start;&quot;&gt;%3CmxGraphModel%3E%3Croot%3E%3CmxCell%20id%3D%220%22%2F%3E%3CmxCell%20id%3D%221%22%20parent%3D%220%22%2F%3E%3CmxCell%20id%3D%222%22%20value%3D%22%22%20style%3D%22whiteSpace%3Dwrap%3Bhtml%3D1%3Baspect%3Dfixed%3B%22%20vertex%3D%221%22%20parent%3D%221%22%3E%3CmxGeometry%20x%3D%22-853%22%20y%3D%22330%22%20width%3D%2280%22%20height%3D%2280%22%20as%3D%22geometry%22%2F%3E%3C%2FmxCell%3E%3C%2Froot%3E%3C%2FmxGraphModel%3E&lt;/span&gt;&lt;/div&gt;" style="rounded=0;whiteSpace=wrap;html=1;movable=0;resizable=0;rotatable=0;deletable=0;editable=0;locked=1;connectable=0;" vertex="1" parent="1">
          <mxGeometry x="-1532" y="555" width="133" height="80" as="geometry" />
        </mxCell>
        <mxCell id="K-C7AdIlWcm5XO7sy-5D-154" value="Задача Х&lt;br&gt;Руководитель:&amp;nbsp; A&lt;div&gt;&lt;span style=&quot;background-color: transparent; color: light-dark(rgb(0, 0, 0), rgb(255, 255, 255));&quot;&gt;Сроки: дата&lt;/span&gt;&lt;span style=&quot;background-color: transparent; text-wrap: nowrap; color: rgba(0, 0, 0, 0); font-family: monospace; font-size: 0px; text-align: start;&quot;&gt;%3CmxGraphModel%3E%3Croot%3E%3CmxCell%20id%3D%220%22%2F%3E%3CmxCell%20id%3D%221%22%20parent%3D%220%22%2F%3E%3CmxCell%20id%3D%222%22%20value%3D%22%22%20style%3D%22whiteSpace%3Dwrap%3Bhtml%3D1%3Baspect%3Dfixed%3B%22%20vertex%3D%221%22%20parent%3D%221%22%3E%3CmxGeometry%20x%3D%22-853%22%20y%3D%22330%22%20width%3D%2280%22%20height%3D%2280%22%20as%3D%22geometry%22%2F%3E%3C%2FmxCell%3E%3C%2Froot%3E%3C%2FmxGraphModel%3E&lt;/span&gt;&lt;/div&gt;" style="rounded=0;whiteSpace=wrap;html=1;movable=0;resizable=0;rotatable=0;deletable=0;editable=0;locked=1;connectable=0;" vertex="1" parent="1">
          <mxGeometry x="-1795" y="440" width="133" height="80" as="geometry" />
        </mxCell>
        <mxCell id="K-C7AdIlWcm5XO7sy-5D-155" value="Задача Х&lt;br&gt;Руководитель:&amp;nbsp; A&lt;div&gt;&lt;span style=&quot;background-color: transparent; color: light-dark(rgb(0, 0, 0), rgb(255, 255, 255));&quot;&gt;Сроки: дата&lt;/span&gt;&lt;span style=&quot;background-color: transparent; text-wrap: nowrap; color: rgba(0, 0, 0, 0); font-family: monospace; font-size: 0px; text-align: start;&quot;&gt;%3CmxGraphModel%3E%3Croot%3E%3CmxCell%20id%3D%220%22%2F%3E%3CmxCell%20id%3D%221%22%20parent%3D%220%22%2F%3E%3CmxCell%20id%3D%222%22%20value%3D%22%22%20style%3D%22whiteSpace%3Dwrap%3Bhtml%3D1%3Baspect%3Dfixed%3B%22%20vertex%3D%221%22%20parent%3D%221%22%3E%3CmxGeometry%20x%3D%22-853%22%20y%3D%22330%22%20width%3D%2280%22%20height%3D%2280%22%20as%3D%22geometry%22%2F%3E%3C%2FmxCell%3E%3C%2Froot%3E%3C%2FmxGraphModel%3E&lt;/span&gt;&lt;/div&gt;" style="rounded=0;whiteSpace=wrap;html=1;movable=0;resizable=0;rotatable=0;deletable=0;editable=0;locked=1;connectable=0;" vertex="1" parent="1">
          <mxGeometry x="-1795" y="555" width="133" height="80" as="geometry" />
        </mxCell>
        <mxCell id="K-C7AdIlWcm5XO7sy-5D-156" value="Добавить задачу" style="rounded=0;whiteSpace=wrap;html=1;movable=0;resizable=0;rotatable=0;deletable=0;editable=0;locked=1;connectable=0;" vertex="1" parent="1">
          <mxGeometry x="-1692" y="660" width="103" height="20" as="geometry" />
        </mxCell>
        <mxCell id="K-C7AdIlWcm5XO7sy-5D-157" value="Добавить этап" style="rounded=0;whiteSpace=wrap;html=1;movable=0;resizable=0;rotatable=0;deletable=0;editable=0;locked=1;connectable=0;" vertex="1" parent="1">
          <mxGeometry x="-1795" y="660" width="103" height="20" as="geometry" />
        </mxCell>
        <mxCell id="K-C7AdIlWcm5XO7sy-5D-158" value="Меню" style="rounded=0;whiteSpace=wrap;html=1;movable=0;resizable=0;rotatable=0;deletable=0;editable=0;locked=1;connectable=0;" vertex="1" parent="1">
          <mxGeometry x="-1732" y="240" width="80" height="20" as="geometry" />
        </mxCell>
        <mxCell id="K-C7AdIlWcm5XO7sy-5D-159" value="Поиск" style="rounded=0;whiteSpace=wrap;html=1;movable=0;resizable=0;rotatable=0;deletable=0;editable=0;locked=1;connectable=0;" vertex="1" parent="1">
          <mxGeometry x="-1638.5" y="240" width="80" height="20" as="geometry" />
        </mxCell>
        <mxCell id="K-C7AdIlWcm5XO7sy-5D-160" value="Фильтр" style="rounded=0;whiteSpace=wrap;html=1;movable=0;resizable=0;rotatable=0;deletable=0;editable=0;locked=1;connectable=0;" vertex="1" parent="1">
          <mxGeometry x="-1542" y="240" width="80" height="20" as="geometry" />
        </mxCell>
        <mxCell id="K-C7AdIlWcm5XO7sy-5D-161" value="" style="rounded=0;whiteSpace=wrap;html=1;movable=0;resizable=0;rotatable=0;deletable=0;editable=0;locked=1;connectable=0;" vertex="1" parent="1">
          <mxGeometry x="-1392" y="350" width="480" height="320" as="geometry" />
        </mxCell>
        <mxCell id="K-C7AdIlWcm5XO7sy-5D-162" value="" style="rounded=0;whiteSpace=wrap;html=1;fillColor=#FF0000;movable=0;resizable=0;rotatable=0;deletable=0;editable=0;locked=1;connectable=0;" vertex="1" parent="1">
          <mxGeometry x="-932" y="330" width="20" height="20" as="geometry" />
        </mxCell>
        <mxCell id="K-C7AdIlWcm5XO7sy-5D-163" value="" style="endArrow=none;html=1;rounded=0;movable=0;resizable=0;rotatable=0;deletable=0;editable=0;locked=1;connectable=0;" edge="1" parent="1">
          <mxGeometry width="50" height="50" relative="1" as="geometry">
            <mxPoint x="-927" y="345" as="sourcePoint" />
            <mxPoint x="-917" y="335" as="targetPoint" />
          </mxGeometry>
        </mxCell>
        <mxCell id="K-C7AdIlWcm5XO7sy-5D-164" value="" style="endArrow=none;html=1;rounded=0;movable=0;resizable=0;rotatable=0;deletable=0;editable=0;locked=1;connectable=0;" edge="1" parent="1">
          <mxGeometry width="50" height="50" relative="1" as="geometry">
            <mxPoint x="-917" y="345" as="sourcePoint" />
            <mxPoint x="-927" y="335" as="targetPoint" />
          </mxGeometry>
        </mxCell>
        <mxCell id="K-C7AdIlWcm5XO7sy-5D-165" value="Модальное окно" style="rounded=0;whiteSpace=wrap;html=1;movable=0;resizable=0;rotatable=0;deletable=0;editable=0;locked=1;connectable=0;" vertex="1" parent="1">
          <mxGeometry x="-1392" y="330" width="460" height="20" as="geometry" />
        </mxCell>
        <mxCell id="K-C7AdIlWcm5XO7sy-5D-166" value="" style="strokeWidth=1;shadow=0;dashed=0;align=center;html=1;shape=mxgraph.mockup.graphics.rrect;rSize=0;strokeColor=#999999;movable=0;resizable=0;rotatable=0;deletable=0;editable=0;locked=1;connectable=0;" vertex="1" parent="1">
          <mxGeometry x="-1392" y="350" width="480" height="220" as="geometry" />
        </mxCell>
        <mxCell id="K-C7AdIlWcm5XO7sy-5D-167" value="#" style="strokeColor=inherit;fillColor=inherit;gradientColor=inherit;strokeWidth=1;shadow=0;dashed=0;align=center;html=1;shape=mxgraph.mockup.graphics.rrect;rSize=0;fontColor=#666666;movable=0;resizable=0;rotatable=0;deletable=0;editable=0;locked=1;connectable=0;" vertex="1" parent="K-C7AdIlWcm5XO7sy-5D-166">
          <mxGeometry width="16" height="29.333333333333332" as="geometry" />
        </mxCell>
        <mxCell id="K-C7AdIlWcm5XO7sy-5D-168" value="Task" style="strokeColor=inherit;fillColor=inherit;gradientColor=inherit;strokeWidth=1;shadow=0;dashed=0;align=center;html=1;shape=mxgraph.mockup.graphics.rrect;rSize=0;fontColor=#666666;movable=0;resizable=0;rotatable=0;deletable=0;editable=0;locked=1;connectable=0;" vertex="1" parent="K-C7AdIlWcm5XO7sy-5D-166">
          <mxGeometry x="16" width="32" height="29.333333333333332" as="geometry" />
        </mxCell>
        <mxCell id="K-C7AdIlWcm5XO7sy-5D-169" value="Start" style="strokeColor=inherit;fillColor=inherit;gradientColor=inherit;strokeWidth=1;shadow=0;dashed=0;align=center;html=1;shape=mxgraph.mockup.graphics.rrect;rSize=0;fontColor=#666666;movable=0;resizable=0;rotatable=0;deletable=0;editable=0;locked=1;connectable=0;" vertex="1" parent="K-C7AdIlWcm5XO7sy-5D-166">
          <mxGeometry x="47.99999999999999" width="103.99999999999999" height="29.333333333333332" as="geometry" />
        </mxCell>
        <mxCell id="K-C7AdIlWcm5XO7sy-5D-170" value="Effort" style="strokeColor=inherit;fillColor=inherit;gradientColor=inherit;strokeWidth=1;shadow=0;dashed=0;align=center;html=1;shape=mxgraph.mockup.graphics.rrect;rSize=0;fontColor=#666666;movable=0;resizable=0;rotatable=0;deletable=0;editable=0;locked=1;connectable=0;" vertex="1" parent="K-C7AdIlWcm5XO7sy-5D-166">
          <mxGeometry x="152.00000000000003" width="40" height="29.333333333333332" as="geometry" />
        </mxCell>
        <mxCell id="K-C7AdIlWcm5XO7sy-5D-171" value="20//10//2014" style="strokeColor=inherit;fillColor=inherit;gradientColor=inherit;strokeWidth=1;shadow=0;dashed=0;align=center;html=1;shape=mxgraph.mockup.graphics.rrect;rSize=0;fontColor=#666666;movable=0;resizable=0;rotatable=0;deletable=0;editable=0;locked=1;connectable=0;" vertex="1" parent="K-C7AdIlWcm5XO7sy-5D-166">
          <mxGeometry x="191.99999999999997" width="167.99999999999997" height="14.666666666666666" as="geometry" />
        </mxCell>
        <mxCell id="K-C7AdIlWcm5XO7sy-5D-172" value="27//10//2014" style="strokeColor=inherit;fillColor=inherit;gradientColor=inherit;strokeWidth=1;shadow=0;dashed=0;align=center;html=1;shape=mxgraph.mockup.graphics.rrect;rSize=0;fontColor=#666666;movable=0;resizable=0;rotatable=0;deletable=0;editable=0;locked=1;connectable=0;" vertex="1" parent="K-C7AdIlWcm5XO7sy-5D-166">
          <mxGeometry x="359.99999999999994" width="119.99999999999999" height="14.666666666666666" as="geometry" />
        </mxCell>
        <mxCell id="K-C7AdIlWcm5XO7sy-5D-173" value="M" style="strokeColor=inherit;fillColor=inherit;gradientColor=inherit;strokeWidth=1;shadow=0;dashed=0;align=center;html=1;shape=mxgraph.mockup.graphics.rrect;rSize=0;;fontColor=#666666;movable=0;resizable=0;rotatable=0;deletable=0;editable=0;locked=1;connectable=0;" vertex="1" parent="K-C7AdIlWcm5XO7sy-5D-166">
          <mxGeometry x="191.99999999999997" y="14.666666666666666" width="23.999999999999996" height="14.666666666666666" as="geometry" />
        </mxCell>
        <mxCell id="K-C7AdIlWcm5XO7sy-5D-174" value="T" style="strokeColor=inherit;fillColor=inherit;gradientColor=inherit;strokeWidth=1;shadow=0;dashed=0;align=center;html=1;shape=mxgraph.mockup.graphics.rrect;rSize=0;fontColor=#666666;movable=0;resizable=0;rotatable=0;deletable=0;editable=0;locked=1;connectable=0;" vertex="1" parent="K-C7AdIlWcm5XO7sy-5D-166">
          <mxGeometry x="215.99999999999997" y="14.666666666666666" width="23.999999999999996" height="14.666666666666666" as="geometry" />
        </mxCell>
        <mxCell id="K-C7AdIlWcm5XO7sy-5D-175" value="W" style="strokeColor=inherit;fillColor=inherit;gradientColor=inherit;strokeWidth=1;shadow=0;dashed=0;align=center;html=1;shape=mxgraph.mockup.graphics.rrect;rSize=0;fontColor=#666666;movable=0;resizable=0;rotatable=0;deletable=0;editable=0;locked=1;connectable=0;" vertex="1" parent="K-C7AdIlWcm5XO7sy-5D-166">
          <mxGeometry x="239.99999999999997" y="14.666666666666666" width="23.999999999999996" height="14.666666666666666" as="geometry" />
        </mxCell>
        <mxCell id="K-C7AdIlWcm5XO7sy-5D-176" value="T" style="strokeColor=inherit;fillColor=inherit;gradientColor=inherit;strokeWidth=1;shadow=0;dashed=0;align=center;html=1;shape=mxgraph.mockup.graphics.rrect;rSize=0;fontColor=#666666;movable=0;resizable=0;rotatable=0;deletable=0;editable=0;locked=1;connectable=0;" vertex="1" parent="K-C7AdIlWcm5XO7sy-5D-166">
          <mxGeometry x="263.99999999999994" y="14.666666666666666" width="23.999999999999996" height="14.666666666666666" as="geometry" />
        </mxCell>
        <mxCell id="K-C7AdIlWcm5XO7sy-5D-177" value="F" style="strokeColor=inherit;fillColor=inherit;gradientColor=inherit;strokeWidth=1;shadow=0;dashed=0;align=center;html=1;shape=mxgraph.mockup.graphics.rrect;rSize=0;fontColor=#666666;movable=0;resizable=0;rotatable=0;deletable=0;editable=0;locked=1;connectable=0;" vertex="1" parent="K-C7AdIlWcm5XO7sy-5D-166">
          <mxGeometry x="288" y="14.666666666666666" width="23.999999999999996" height="14.666666666666666" as="geometry" />
        </mxCell>
        <mxCell id="K-C7AdIlWcm5XO7sy-5D-178" value="S" style="strokeColor=inherit;fillColor=inherit;gradientColor=inherit;strokeWidth=1;shadow=0;dashed=0;align=center;html=1;shape=mxgraph.mockup.graphics.rrect;rSize=0;fontColor=#666666;movable=0;resizable=0;rotatable=0;deletable=0;editable=0;locked=1;connectable=0;" vertex="1" parent="K-C7AdIlWcm5XO7sy-5D-166">
          <mxGeometry x="312" y="14.666666666666666" width="23.999999999999996" height="14.666666666666666" as="geometry" />
        </mxCell>
        <mxCell id="K-C7AdIlWcm5XO7sy-5D-179" value="S" style="strokeColor=inherit;fillColor=inherit;gradientColor=inherit;strokeWidth=1;shadow=0;dashed=0;align=center;html=1;shape=mxgraph.mockup.graphics.rrect;rSize=0;fontColor=#666666;movable=0;resizable=0;rotatable=0;deletable=0;editable=0;locked=1;connectable=0;" vertex="1" parent="K-C7AdIlWcm5XO7sy-5D-166">
          <mxGeometry x="335.99999999999994" y="14.666666666666666" width="23.999999999999996" height="14.666666666666666" as="geometry" />
        </mxCell>
        <mxCell id="K-C7AdIlWcm5XO7sy-5D-180" value="M" style="strokeColor=inherit;fillColor=inherit;gradientColor=inherit;strokeWidth=1;shadow=0;dashed=0;align=center;html=1;shape=mxgraph.mockup.graphics.rrect;rSize=0;fontColor=#666666;movable=0;resizable=0;rotatable=0;deletable=0;editable=0;locked=1;connectable=0;" vertex="1" parent="K-C7AdIlWcm5XO7sy-5D-166">
          <mxGeometry x="359.99999999999994" y="14.666666666666666" width="23.999999999999996" height="14.666666666666666" as="geometry" />
        </mxCell>
        <mxCell id="K-C7AdIlWcm5XO7sy-5D-181" value="T" style="strokeColor=inherit;fillColor=inherit;gradientColor=inherit;strokeWidth=1;shadow=0;dashed=0;align=center;html=1;shape=mxgraph.mockup.graphics.rrect;rSize=0;fontColor=#666666;movable=0;resizable=0;rotatable=0;deletable=0;editable=0;locked=1;connectable=0;" vertex="1" parent="K-C7AdIlWcm5XO7sy-5D-166">
          <mxGeometry x="383.99999999999994" y="14.666666666666666" width="23.999999999999996" height="14.666666666666666" as="geometry" />
        </mxCell>
        <mxCell id="K-C7AdIlWcm5XO7sy-5D-182" value="W" style="strokeColor=inherit;fillColor=inherit;gradientColor=inherit;strokeWidth=1;shadow=0;dashed=0;align=center;html=1;shape=mxgraph.mockup.graphics.rrect;rSize=0;fontColor=#666666;movable=0;resizable=0;rotatable=0;deletable=0;editable=0;locked=1;connectable=0;" vertex="1" parent="K-C7AdIlWcm5XO7sy-5D-166">
          <mxGeometry x="407.99999999999994" y="14.666666666666666" width="23.999999999999996" height="14.666666666666666" as="geometry" />
        </mxCell>
        <mxCell id="K-C7AdIlWcm5XO7sy-5D-183" value="T" style="strokeColor=inherit;fillColor=inherit;gradientColor=inherit;strokeWidth=1;shadow=0;dashed=0;align=center;html=1;shape=mxgraph.mockup.graphics.rrect;rSize=0;fontColor=#666666;movable=0;resizable=0;rotatable=0;deletable=0;editable=0;locked=1;connectable=0;" vertex="1" parent="K-C7AdIlWcm5XO7sy-5D-166">
          <mxGeometry x="431.99999999999994" y="14.666666666666666" width="23.999999999999996" height="14.666666666666666" as="geometry" />
        </mxCell>
        <mxCell id="K-C7AdIlWcm5XO7sy-5D-184" value="F" style="strokeColor=inherit;fillColor=inherit;gradientColor=inherit;strokeWidth=1;shadow=0;dashed=0;align=center;html=1;shape=mxgraph.mockup.graphics.rrect;rSize=0;fontColor=#666666;movable=0;resizable=0;rotatable=0;deletable=0;editable=0;locked=1;connectable=0;" vertex="1" parent="K-C7AdIlWcm5XO7sy-5D-166">
          <mxGeometry x="455.99999999999994" y="14.666666666666666" width="23.999999999999996" height="14.666666666666666" as="geometry" />
        </mxCell>
        <mxCell id="K-C7AdIlWcm5XO7sy-5D-185" value="" style="strokeColor=inherit;fillColor=inherit;gradientColor=inherit;strokeWidth=1;shadow=0;dashed=0;align=center;html=1;shape=mxgraph.mockup.graphics.rrect;rSize=0;fontColor=#666666;movable=0;resizable=0;rotatable=0;deletable=0;editable=0;locked=1;connectable=0;" vertex="1" parent="K-C7AdIlWcm5XO7sy-5D-166">
          <mxGeometry y="29.333333333333332" width="191.99999999999997" height="190.66666666666666" as="geometry" />
        </mxCell>
        <mxCell id="K-C7AdIlWcm5XO7sy-5D-186" value="" style="strokeColor=inherit;fillColor=inherit;gradientColor=inherit;strokeWidth=1;shadow=0;dashed=0;align=center;html=1;shape=mxgraph.mockup.graphics.rrect;rSize=0;fontColor=#666666;movable=0;resizable=0;rotatable=0;deletable=0;editable=0;locked=1;connectable=0;" vertex="1" parent="K-C7AdIlWcm5XO7sy-5D-166">
          <mxGeometry x="191.99999999999997" y="29.333333333333332" width="47.99999999999999" height="190.66666666666666" as="geometry" />
        </mxCell>
        <mxCell id="K-C7AdIlWcm5XO7sy-5D-187" value="" style="strokeColor=inherit;fillColor=inherit;gradientColor=inherit;strokeWidth=1;shadow=0;dashed=0;align=center;html=1;shape=mxgraph.mockup.graphics.rrect;rSize=0;fontColor=#666666;movable=0;resizable=0;rotatable=0;deletable=0;editable=0;locked=1;connectable=0;" vertex="1" parent="K-C7AdIlWcm5XO7sy-5D-166">
          <mxGeometry x="239.99999999999997" y="29.333333333333332" width="47.99999999999999" height="190.66666666666666" as="geometry" />
        </mxCell>
        <mxCell id="K-C7AdIlWcm5XO7sy-5D-188" value="" style="strokeColor=inherit;fillColor=inherit;gradientColor=inherit;strokeWidth=1;shadow=0;dashed=0;align=center;html=1;shape=mxgraph.mockup.graphics.rrect;rSize=0;fontColor=#666666;movable=0;resizable=0;rotatable=0;deletable=0;editable=0;locked=1;connectable=0;" vertex="1" parent="K-C7AdIlWcm5XO7sy-5D-166">
          <mxGeometry x="288" y="29.333333333333332" width="47.99999999999999" height="190.66666666666666" as="geometry" />
        </mxCell>
        <mxCell id="K-C7AdIlWcm5XO7sy-5D-189" value="" style="strokeColor=inherit;fillColor=inherit;gradientColor=inherit;strokeWidth=1;shadow=0;dashed=0;align=center;html=1;shape=mxgraph.mockup.graphics.rrect;rSize=0;fontColor=#666666;movable=0;resizable=0;rotatable=0;deletable=0;editable=0;locked=1;connectable=0;" vertex="1" parent="K-C7AdIlWcm5XO7sy-5D-166">
          <mxGeometry x="335.99999999999994" y="29.333333333333332" width="47.99999999999999" height="190.66666666666666" as="geometry" />
        </mxCell>
        <mxCell id="K-C7AdIlWcm5XO7sy-5D-190" value="" style="strokeColor=inherit;fillColor=inherit;gradientColor=inherit;strokeWidth=1;shadow=0;dashed=0;align=center;html=1;shape=mxgraph.mockup.graphics.rrect;rSize=0;fontColor=#666666;movable=0;resizable=0;rotatable=0;deletable=0;editable=0;locked=1;connectable=0;" vertex="1" parent="K-C7AdIlWcm5XO7sy-5D-166">
          <mxGeometry x="383.99999999999994" y="29.333333333333332" width="47.99999999999999" height="190.66666666666666" as="geometry" />
        </mxCell>
        <mxCell id="K-C7AdIlWcm5XO7sy-5D-191" value="" style="strokeColor=inherit;fillColor=inherit;gradientColor=inherit;strokeWidth=1;shadow=0;dashed=0;align=center;html=1;shape=mxgraph.mockup.graphics.rrect;rSize=0;fontColor=#666666;movable=0;resizable=0;rotatable=0;deletable=0;editable=0;locked=1;connectable=0;" vertex="1" parent="K-C7AdIlWcm5XO7sy-5D-166">
          <mxGeometry x="431.99999999999994" y="29.333333333333332" width="47.99999999999999" height="190.66666666666666" as="geometry" />
        </mxCell>
        <mxCell id="K-C7AdIlWcm5XO7sy-5D-192" value="1" style="strokeWidth=1;shadow=0;dashed=0;align=center;html=1;shape=mxgraph.mockup.graphics.anchor;fontColor=#666666;movable=0;resizable=0;rotatable=0;deletable=0;editable=0;locked=1;connectable=0;" vertex="1" parent="K-C7AdIlWcm5XO7sy-5D-166">
          <mxGeometry y="29.333333333333332" width="16" height="14.666666666666666" as="geometry" />
        </mxCell>
        <mxCell id="K-C7AdIlWcm5XO7sy-5D-193" value="Task 1" style="strokeWidth=1;shadow=0;dashed=0;align=center;html=1;shape=mxgraph.mockup.graphics.anchor;fontColor=#666666;movable=0;resizable=0;rotatable=0;deletable=0;editable=0;locked=1;connectable=0;" vertex="1" parent="K-C7AdIlWcm5XO7sy-5D-166">
          <mxGeometry x="16" y="29.333333333333332" width="32" height="14.666666666666666" as="geometry" />
        </mxCell>
        <mxCell id="K-C7AdIlWcm5XO7sy-5D-194" value="20//10//2014 8:00 AM" style="strokeWidth=1;shadow=0;dashed=0;align=center;html=1;shape=mxgraph.mockup.graphics.anchor;fontColor=#666666;movable=0;resizable=0;rotatable=0;deletable=0;editable=0;locked=1;connectable=0;" vertex="1" parent="K-C7AdIlWcm5XO7sy-5D-166">
          <mxGeometry x="47.99999999999999" y="29.333333333333332" width="103.99999999999999" height="14.666666666666666" as="geometry" />
        </mxCell>
        <mxCell id="K-C7AdIlWcm5XO7sy-5D-195" value="40h" style="strokeWidth=1;shadow=0;dashed=0;align=center;html=1;shape=mxgraph.mockup.graphics.anchor;fontColor=#666666;movable=0;resizable=0;rotatable=0;deletable=0;editable=0;locked=1;connectable=0;" vertex="1" parent="K-C7AdIlWcm5XO7sy-5D-166">
          <mxGeometry x="152.00000000000003" y="29.333333333333332" width="40" height="14.666666666666666" as="geometry" />
        </mxCell>
        <mxCell id="K-C7AdIlWcm5XO7sy-5D-196" value="2" style="strokeWidth=1;shadow=0;dashed=0;align=center;html=1;shape=mxgraph.mockup.graphics.anchor;fontColor=#666666;movable=0;resizable=0;rotatable=0;deletable=0;editable=0;locked=1;connectable=0;" vertex="1" parent="K-C7AdIlWcm5XO7sy-5D-166">
          <mxGeometry y="44" width="16" height="14.666666666666666" as="geometry" />
        </mxCell>
        <mxCell id="K-C7AdIlWcm5XO7sy-5D-197" value="Task 2" style="strokeWidth=1;shadow=0;dashed=0;align=center;html=1;shape=mxgraph.mockup.graphics.anchor;fontColor=#666666;movable=0;resizable=0;rotatable=0;deletable=0;editable=0;locked=1;connectable=0;" vertex="1" parent="K-C7AdIlWcm5XO7sy-5D-166">
          <mxGeometry x="16" y="44" width="32" height="14.666666666666666" as="geometry" />
        </mxCell>
        <mxCell id="K-C7AdIlWcm5XO7sy-5D-198" value="20//10//2014 8:00 AM" style="strokeWidth=1;shadow=0;dashed=0;align=center;html=1;shape=mxgraph.mockup.graphics.anchor;fontColor=#666666;movable=0;resizable=0;rotatable=0;deletable=0;editable=0;locked=1;connectable=0;" vertex="1" parent="K-C7AdIlWcm5XO7sy-5D-166">
          <mxGeometry x="47.99999999999999" y="44" width="103.99999999999999" height="14.666666666666666" as="geometry" />
        </mxCell>
        <mxCell id="K-C7AdIlWcm5XO7sy-5D-199" value="40h" style="strokeWidth=1;shadow=0;dashed=0;align=center;html=1;shape=mxgraph.mockup.graphics.anchor;fontColor=#666666;movable=0;resizable=0;rotatable=0;deletable=0;editable=0;locked=1;connectable=0;" vertex="1" parent="K-C7AdIlWcm5XO7sy-5D-166">
          <mxGeometry x="152.00000000000003" y="44" width="40" height="14.666666666666666" as="geometry" />
        </mxCell>
        <mxCell id="K-C7AdIlWcm5XO7sy-5D-200" value="3" style="strokeWidth=1;shadow=0;dashed=0;align=center;html=1;shape=mxgraph.mockup.graphics.anchor;fontColor=#666666;movable=0;resizable=0;rotatable=0;deletable=0;editable=0;locked=1;connectable=0;" vertex="1" parent="K-C7AdIlWcm5XO7sy-5D-166">
          <mxGeometry y="58.666666666666664" width="16" height="14.666666666666666" as="geometry" />
        </mxCell>
        <mxCell id="K-C7AdIlWcm5XO7sy-5D-201" value="Task 3" style="strokeWidth=1;shadow=0;dashed=0;align=center;html=1;shape=mxgraph.mockup.graphics.anchor;fontColor=#666666;movable=0;resizable=0;rotatable=0;deletable=0;editable=0;locked=1;connectable=0;" vertex="1" parent="K-C7AdIlWcm5XO7sy-5D-166">
          <mxGeometry x="16" y="58.666666666666664" width="32" height="14.666666666666666" as="geometry" />
        </mxCell>
        <mxCell id="K-C7AdIlWcm5XO7sy-5D-202" value="20//10//2014 8:00 AM" style="strokeWidth=1;shadow=0;dashed=0;align=center;html=1;shape=mxgraph.mockup.graphics.anchor;fontColor=#666666;movable=0;resizable=0;rotatable=0;deletable=0;editable=0;locked=1;connectable=0;" vertex="1" parent="K-C7AdIlWcm5XO7sy-5D-166">
          <mxGeometry x="47.99999999999999" y="58.666666666666664" width="103.99999999999999" height="14.666666666666666" as="geometry" />
        </mxCell>
        <mxCell id="K-C7AdIlWcm5XO7sy-5D-203" value="40h" style="strokeWidth=1;shadow=0;dashed=0;align=center;html=1;shape=mxgraph.mockup.graphics.anchor;fontColor=#666666;movable=0;resizable=0;rotatable=0;deletable=0;editable=0;locked=1;connectable=0;" vertex="1" parent="K-C7AdIlWcm5XO7sy-5D-166">
          <mxGeometry x="152.00000000000003" y="58.666666666666664" width="40" height="14.666666666666666" as="geometry" />
        </mxCell>
        <mxCell id="K-C7AdIlWcm5XO7sy-5D-204" value="4" style="strokeWidth=1;shadow=0;dashed=0;align=center;html=1;shape=mxgraph.mockup.graphics.anchor;fontColor=#666666;movable=0;resizable=0;rotatable=0;deletable=0;editable=0;locked=1;connectable=0;" vertex="1" parent="K-C7AdIlWcm5XO7sy-5D-166">
          <mxGeometry y="73.33333333333333" width="16" height="14.666666666666666" as="geometry" />
        </mxCell>
        <mxCell id="K-C7AdIlWcm5XO7sy-5D-205" value="Task 4" style="strokeWidth=1;shadow=0;dashed=0;align=center;html=1;shape=mxgraph.mockup.graphics.anchor;fontColor=#666666;movable=0;resizable=0;rotatable=0;deletable=0;editable=0;locked=1;connectable=0;" vertex="1" parent="K-C7AdIlWcm5XO7sy-5D-166">
          <mxGeometry x="16" y="73.33333333333333" width="32" height="14.666666666666666" as="geometry" />
        </mxCell>
        <mxCell id="K-C7AdIlWcm5XO7sy-5D-206" value="20//10//2014 8:00 AM" style="strokeWidth=1;shadow=0;dashed=0;align=center;html=1;shape=mxgraph.mockup.graphics.anchor;fontColor=#666666;movable=0;resizable=0;rotatable=0;deletable=0;editable=0;locked=1;connectable=0;" vertex="1" parent="K-C7AdIlWcm5XO7sy-5D-166">
          <mxGeometry x="47.99999999999999" y="73.33333333333333" width="103.99999999999999" height="14.666666666666666" as="geometry" />
        </mxCell>
        <mxCell id="K-C7AdIlWcm5XO7sy-5D-207" value="40h" style="strokeWidth=1;shadow=0;dashed=0;align=center;html=1;shape=mxgraph.mockup.graphics.anchor;fontColor=#666666;movable=0;resizable=0;rotatable=0;deletable=0;editable=0;locked=1;connectable=0;" vertex="1" parent="K-C7AdIlWcm5XO7sy-5D-166">
          <mxGeometry x="152.00000000000003" y="73.33333333333333" width="40" height="14.666666666666666" as="geometry" />
        </mxCell>
        <mxCell id="K-C7AdIlWcm5XO7sy-5D-208" value="" style="strokeWidth=1;shadow=0;dashed=0;align=center;html=1;shape=mxgraph.mockup.graphics.rrect;rSize=0;strokeColor=none;fillColor=#aaddff;movable=0;resizable=0;rotatable=0;deletable=0;editable=0;locked=1;connectable=0;" vertex="1" parent="K-C7AdIlWcm5XO7sy-5D-166">
          <mxGeometry x="199.99999999999997" y="33" width="103.99999999999999" height="7.333333333333333" as="geometry" />
        </mxCell>
        <mxCell id="K-C7AdIlWcm5XO7sy-5D-209" value="" style="strokeWidth=1;shadow=0;dashed=0;align=center;html=1;shape=mxgraph.mockup.graphics.rrect;rSize=0;strokeColor=none;fillColor=#aaddff;movable=0;resizable=0;rotatable=0;deletable=0;editable=0;locked=1;connectable=0;" vertex="1" parent="K-C7AdIlWcm5XO7sy-5D-166">
          <mxGeometry x="199.99999999999997" y="47.666666666666664" width="32" height="7.333333333333333" as="geometry" />
        </mxCell>
        <mxCell id="K-C7AdIlWcm5XO7sy-5D-210" value="" style="strokeWidth=1;shadow=0;dashed=0;align=center;html=1;shape=mxgraph.mockup.graphics.rrect;rSize=0;strokeColor=none;fillColor=#aaddff;movable=0;resizable=0;rotatable=0;deletable=0;editable=0;locked=1;connectable=0;" vertex="1" parent="K-C7AdIlWcm5XO7sy-5D-166">
          <mxGeometry x="223.99999999999997" y="62.33333333333333" width="80" height="7.333333333333333" as="geometry" />
        </mxCell>
        <mxCell id="K-C7AdIlWcm5XO7sy-5D-211" value="" style="strokeWidth=1;shadow=0;dashed=0;align=center;html=1;shape=mxgraph.mockup.graphics.rrect;rSize=0;strokeColor=none;fillColor=#aaddff;movable=0;resizable=0;rotatable=0;deletable=0;editable=0;locked=1;connectable=0;" vertex="1" parent="K-C7AdIlWcm5XO7sy-5D-166">
          <mxGeometry x="272" y="77" width="55.99999999999999" height="7.333333333333333" as="geometry" />
        </mxCell>
        <mxCell id="QGm4Sexy_VAf9BOPVTlP-1" value="загрузить информацию из библиотеки" style="rounded=1;whiteSpace=wrap;html=1;" vertex="1" parent="1">
          <mxGeometry x="-1380" y="575" width="250" height="25" as="geometry" />
        </mxCell>
        <mxCell id="QGm4Sexy_VAf9BOPVTlP-2" value="Загрузить регламенты" style="rounded=1;whiteSpace=wrap;html=1;" vertex="1" parent="1">
          <mxGeometry x="-1380" y="608" width="250" height="25" as="geometry" />
        </mxCell>
        <mxCell id="QGm4Sexy_VAf9BOPVTlP-3" value="Загрузить юридическую документацию" style="rounded=1;whiteSpace=wrap;html=1;" vertex="1" parent="1">
          <mxGeometry x="-1380" y="641" width="250" height="25" as="geometry" />
        </mxCell>
      </root>
    </mxGraphModel>
  </diagram>
  <diagram id="_LTfyGzpz8f2M3ddmaql" name="Страница — 3">
    <mxGraphModel dx="2074" dy="1196" grid="1" gridSize="10" guides="1" tooltips="1" connect="1" arrows="1" fold="1" page="1" pageScale="1" pageWidth="827" pageHeight="1169" math="0" shadow="0">
      <root>
        <mxCell id="0" />
        <mxCell id="1" parent="0" />
        <mxCell id="l_9_AtnYxNbwQf72Uuvt-1" value="" style="fontColor=#0066CC;verticalAlign=top;verticalLabelPosition=bottom;labelPosition=center;align=center;html=1;outlineConnect=0;fillColor=#CCCCCC;strokeColor=#6881B3;gradientColor=none;gradientDirection=north;strokeWidth=2;shape=mxgraph.networks.monitor;movable=1;resizable=1;rotatable=1;deletable=1;editable=1;locked=0;connectable=1;" vertex="1" parent="1">
          <mxGeometry x="130" y="210" width="910" height="730" as="geometry" />
        </mxCell>
        <mxCell id="l_9_AtnYxNbwQf72Uuvt-2" value="" style="rounded=0;whiteSpace=wrap;html=1;fillColor=#33FFFF;gradientColor=none;movable=1;resizable=1;rotatable=1;deletable=1;editable=1;locked=0;connectable=1;" vertex="1" parent="1">
          <mxGeometry x="135" y="220" width="900" height="500" as="geometry" />
        </mxCell>
        <mxCell id="l_9_AtnYxNbwQf72Uuvt-3" value="" style="rounded=0;whiteSpace=wrap;html=1;movable=1;resizable=1;rotatable=1;deletable=1;editable=1;locked=0;connectable=1;" vertex="1" parent="1">
          <mxGeometry x="135" y="240" width="900" height="460" as="geometry" />
        </mxCell>
        <mxCell id="l_9_AtnYxNbwQf72Uuvt-4" value="" style="rounded=0;whiteSpace=wrap;html=1;fillColor=#FF0000;movable=1;resizable=1;rotatable=1;deletable=1;editable=1;locked=0;connectable=1;" vertex="1" parent="1">
          <mxGeometry x="1015" y="220" width="20" height="20" as="geometry" />
        </mxCell>
        <mxCell id="l_9_AtnYxNbwQf72Uuvt-5" value="" style="rounded=0;whiteSpace=wrap;html=1;fillColor=#33FFFF;movable=1;resizable=1;rotatable=1;deletable=1;editable=1;locked=0;connectable=1;" vertex="1" parent="1">
          <mxGeometry x="995" y="220" width="20" height="20" as="geometry" />
        </mxCell>
        <mxCell id="l_9_AtnYxNbwQf72Uuvt-6" value="" style="rounded=0;whiteSpace=wrap;html=1;fillColor=#33FFFF;movable=1;resizable=1;rotatable=1;deletable=1;editable=1;locked=0;connectable=1;" vertex="1" parent="1">
          <mxGeometry x="975" y="220" width="20" height="20" as="geometry" />
        </mxCell>
        <mxCell id="l_9_AtnYxNbwQf72Uuvt-7" value="" style="endArrow=none;html=1;rounded=0;movable=1;resizable=1;rotatable=1;deletable=1;editable=1;locked=0;connectable=1;" edge="1" parent="1">
          <mxGeometry width="50" height="50" relative="1" as="geometry">
            <mxPoint x="1020" y="235" as="sourcePoint" />
            <mxPoint x="1030" y="225" as="targetPoint" />
          </mxGeometry>
        </mxCell>
        <mxCell id="l_9_AtnYxNbwQf72Uuvt-8" value="" style="endArrow=none;html=1;rounded=0;movable=1;resizable=1;rotatable=1;deletable=1;editable=1;locked=0;connectable=1;" edge="1" parent="1">
          <mxGeometry width="50" height="50" relative="1" as="geometry">
            <mxPoint x="1030" y="235" as="sourcePoint" />
            <mxPoint x="1020" y="225" as="targetPoint" />
          </mxGeometry>
        </mxCell>
        <mxCell id="l_9_AtnYxNbwQf72Uuvt-9" value="" style="endArrow=none;html=1;rounded=0;movable=1;resizable=1;rotatable=1;deletable=1;editable=1;locked=0;connectable=1;" edge="1" parent="1">
          <mxGeometry width="50" height="50" relative="1" as="geometry">
            <mxPoint x="980" y="229.92000000000002" as="sourcePoint" />
            <mxPoint x="990" y="229.92000000000002" as="targetPoint" />
          </mxGeometry>
        </mxCell>
        <mxCell id="l_9_AtnYxNbwQf72Uuvt-10" value="" style="rounded=0;whiteSpace=wrap;html=1;movable=1;resizable=1;rotatable=1;deletable=1;editable=1;locked=0;connectable=1;" vertex="1" parent="1">
          <mxGeometry x="135" y="240" width="900" height="60" as="geometry" />
        </mxCell>
        <mxCell id="l_9_AtnYxNbwQf72Uuvt-11" value="Логотип" style="ellipse;whiteSpace=wrap;html=1;aspect=fixed;fontSize=8;movable=1;resizable=1;rotatable=1;deletable=1;editable=1;locked=0;connectable=1;" vertex="1" parent="1">
          <mxGeometry x="145" y="250" width="40" height="40" as="geometry" />
        </mxCell>
        <mxCell id="C9OHAwLlNnMRUy2RTw6i-1" value="" style="rounded=0;whiteSpace=wrap;html=1;" vertex="1" parent="1">
          <mxGeometry x="170" y="340" width="430" height="310" as="geometry" />
        </mxCell>
        <mxCell id="C9OHAwLlNnMRUy2RTw6i-2" value="" style="rounded=0;whiteSpace=wrap;html=1;fillColor=#FF0000;movable=1;resizable=1;rotatable=1;deletable=1;editable=1;locked=0;connectable=1;" vertex="1" parent="1">
          <mxGeometry x="580" y="320" width="20" height="20" as="geometry" />
        </mxCell>
        <mxCell id="C9OHAwLlNnMRUy2RTw6i-3" value="" style="endArrow=none;html=1;rounded=0;movable=1;resizable=1;rotatable=1;deletable=1;editable=1;locked=0;connectable=1;" edge="1" parent="1">
          <mxGeometry width="50" height="50" relative="1" as="geometry">
            <mxPoint x="585" y="335" as="sourcePoint" />
            <mxPoint x="595" y="325" as="targetPoint" />
          </mxGeometry>
        </mxCell>
        <mxCell id="C9OHAwLlNnMRUy2RTw6i-4" value="" style="endArrow=none;html=1;rounded=0;movable=1;resizable=1;rotatable=1;deletable=1;editable=1;locked=0;connectable=1;" edge="1" parent="1">
          <mxGeometry width="50" height="50" relative="1" as="geometry">
            <mxPoint x="595" y="335" as="sourcePoint" />
            <mxPoint x="585" y="325" as="targetPoint" />
          </mxGeometry>
        </mxCell>
        <mxCell id="C9OHAwLlNnMRUy2RTw6i-5" value="Модальное окно" style="rounded=0;whiteSpace=wrap;html=1;" vertex="1" parent="1">
          <mxGeometry x="170" y="320" width="410" height="20" as="geometry" />
        </mxCell>
        <mxCell id="C9OHAwLlNnMRUy2RTw6i-6" value="Наименование проекта" style="rounded=0;whiteSpace=wrap;html=1;align=left;" vertex="1" parent="1">
          <mxGeometry x="180" y="350" width="170" height="20" as="geometry" />
        </mxCell>
        <mxCell id="C9OHAwLlNnMRUy2RTw6i-7" value="Руководитель&lt;br&gt;Начало:&lt;br&gt;Окончание:" style="rounded=0;whiteSpace=wrap;html=1;align=left;" vertex="1" parent="1">
          <mxGeometry x="180" y="370" width="170" height="60" as="geometry" />
        </mxCell>
        <mxCell id="C9OHAwLlNnMRUy2RTw6i-8" value="Описание:&lt;div&gt;&lt;br&gt;&lt;/div&gt;" style="rounded=0;whiteSpace=wrap;html=1;align=left;" vertex="1" parent="1">
          <mxGeometry x="180" y="430" width="170" height="40" as="geometry" />
        </mxCell>
        <mxCell id="C9OHAwLlNnMRUy2RTw6i-9" value="Бюджет:&lt;br&gt;Расходы:" style="rounded=0;whiteSpace=wrap;html=1;align=left;" vertex="1" parent="1">
          <mxGeometry x="180" y="470" width="170" height="40" as="geometry" />
        </mxCell>
        <mxCell id="C9OHAwLlNnMRUy2RTw6i-10" value="Связанные документы:&lt;div&gt;- документ 1&lt;span style=&quot;white-space: pre;&quot;&gt;&#x9;&lt;/span&gt;&lt;/div&gt;&lt;div&gt;- документ 2&lt;/div&gt;&lt;div&gt;&lt;br&gt;&lt;/div&gt;&lt;div&gt;&lt;br&gt;&lt;/div&gt;" style="rounded=0;whiteSpace=wrap;html=1;align=left;" vertex="1" parent="1">
          <mxGeometry x="180" y="510" width="170" height="80" as="geometry" />
        </mxCell>
        <mxCell id="C9OHAwLlNnMRUy2RTw6i-11" value="Редактировать" style="rounded=1;whiteSpace=wrap;html=1;" vertex="1" parent="1">
          <mxGeometry x="180" y="615" width="87" height="30" as="geometry" />
        </mxCell>
        <mxCell id="C9OHAwLlNnMRUy2RTw6i-12" value="Экспорт" style="rounded=1;whiteSpace=wrap;html=1;" vertex="1" parent="1">
          <mxGeometry x="280" y="615" width="87" height="30" as="geometry" />
        </mxCell>
      </root>
    </mxGraphModel>
  </diagram>
</mxfile>
